{
    "accessors": [
        {
            "bufferView": 0,
            "componentType": 5121,
            "count": 60,
            "max": [
                39
            ],
            "min": [
                0
            ],
            "type": "SCALAR"
        },
        {
            "bufferView": 1,
            "componentType": 5126,
            "count": 40,
            "max": [
                1.0,
                1.7123957872390747,
                1.0
            ],
            "min": [
                -1.0000001192092896,
                0.0,
                -1.0000003576278687
            ],
            "type": "VEC3"
        },
        {
            "bufferView": 2,
            "componentType": 5126,
            "count": 40,
            "max": [
                0.9381999969482422,
                1.0,
                0.938200056552887
            ],
            "min": [
                -0.938200056552887,
                -1.0,
                -0.938200056552887
            ],
            "type": "VEC3"
        }
    ],
    "asset": {
        "generator": "Khronos Blender glTF 2.0 exporter",
        "version": "2.0"
    },
    "bufferViews": [
        {
            "buffer": 0,
            "byteLength": 60,
            "byteOffset": 0,
            "target": 34963
        },
        {
            "buffer": 0,
            "byteLength": 480,
            "byteOffset": 60,
            "target": 34962
        },
        {
            "buffer": 0,
            "byteLength": 480,
            "byteOffset": 540,
            "target": 34962
        }
    ],
    "buffers": [
        {
            "byteLength": 1020,
            "uri": "data:application/octet-stream;base64,"
        }
    ],
    "materials": [
        {
            "name": "Material",
            "pbrMetallicRoughness": {
                "baseColorFactor": [
                    0.8000000715255737,
                    0.1258167177438736,
                    0.013141818344593048,
                    1.0
                ],
                "metallicFactor": 0.0
            }
        }
    ],
    "meshes": [
        {
            "name": "Cube",
            "primitives": [
                {
                    "attributes": {
                        "NORMAL": 2,
                        "POSITION": 1
                    },
                    "indices": 0,
                    "material": 0
                }
            ]
        }
    ],
    "nodes": [
        {
            "mesh": 0,
            "name": "Cube"
        }
    ],
    "scene": 0,
    "scenes": [
        {
            "name": "Scene",
            "nodes": [
                0
            ]
        }
    ]
}
