{
    "accessors" : [
        {
            "bufferView" : 0, 
            "componentType" : 5121, 
            "count" : 60, 
            "max" : [
                43
            ], 
            "min" : [
                0
            ], 
            "type" : "SCALAR"
        }, 
        {
            "bufferView" : 1, 
            "componentType" : 5126, 
            "count" : 44, 
            "max" : [
                0.6500000357627869, 
                0.30000001192092896, 
                -0.2500000298023224
            ], 
            "min" : [
                -0.6500000357627869, 
                0.0, 
                -0.5500000715255737
            ], 
            "type" : "VEC3"
        }, 
        {
            "bufferView" : 2, 
            "componentType" : 5126, 
            "count" : 44, 
            "max" : [
                0.7071068286895752, 
                1.0, 
                1.0
            ], 
            "min" : [
                -0.7071068286895752, 
                -1.0, 
                -1.0
            ], 
            "type" : "VEC3"
        }, 
        {
            "bufferView" : 3, 
            "componentType" : 5126, 
            "count" : 44, 
            "max" : [
                1.3121333122253418, 
                0.8878674507141113
            ], 
            "min" : [
                -0.11213254928588867, 
                -0.3121333122253418
            ], 
            "type" : "VEC2"
        }
    ], 
    "asset" : {
        "generator" : "Khronos Blender glTF 2.0 exporter", 
        "version" : "2.0"
    }, 
    "bufferViews" : [
        {
            "buffer" : 0, 
            "byteLength" : 60, 
            "byteOffset" : 0, 
            "target" : 34963
        }, 
        {
            "buffer" : 0, 
            "byteLength" : 528, 
            "byteOffset" : 60, 
            "target" : 34962
        }, 
        {
            "buffer" : 0, 
            "byteLength" : 528, 
            "byteOffset" : 588, 
            "target" : 34962
        }, 
        {
            "buffer" : 0, 
            "byteLength" : 352, 
            "byteOffset" : 1116, 
            "target" : 34962
        }
    ], 
    "buffers" : [
        {
            "byteLength" : 1468, 
            "uri" : "data:application/octet-stream;base64,"
        }
    ], 
    "meshes" : [
        {
            "name" : "bottom_wall", 
            "primitives" : [
                {
                    "attributes" : {
                        "NORMAL" : 2, 
                        "POSITION" : 1, 
                        "TEXCOORD_0" : 3
                    }, 
                    "indices" : 0
                }
            ]
        }
    ], 
    "nodes" : [
        {
            "mesh" : 0, 
            "name" : "Cube.006", 
            "rotation" : [
                0.0, 
                8.742277657347586e-08, 
                -0.0, 
                1.0
            ], 
            "translation" : [
                -6.5, 
                0.0, 
                -5.5
            ]
        }
    ], 
    "scene" : 0, 
    "scenes" : [
        {
            "name" : "Scene", 
            "nodes" : [
                0
            ]
        }
    ]
}
