{
    "accessors" : [
        {
            "bufferView" : 0, 
            "componentType" : 5121, 
            "count" : 96, 
            "max" : [
                59
            ], 
            "min" : [
                0
            ], 
            "type" : "SCALAR"
        }, 
        {
            "bufferView" : 1, 
            "componentType" : 5126, 
            "count" : 60, 
            "max" : [
                0.6500000357627869, 
                0.30000001192092896, 
                -0.2500000298023224
            ], 
            "min" : [
                -0.6500000357627869, 
                0.0, 
                -0.5500000715255737
            ], 
            "type" : "VEC3"
        }, 
        {
            "bufferView" : 2, 
            "componentType" : 5126, 
            "count" : 60, 
            "max" : [
                1.0, 
                1.0, 
                1.0
            ], 
            "min" : [
                -1.0, 
                -1.0, 
                -1.0
            ], 
            "type" : "VEC3"
        }, 
        {
            "bufferView" : 3, 
            "componentType" : 5126, 
            "count" : 60, 
            "max" : [
                1.2621331214904785, 
                0.9378676414489746
            ], 
            "min" : [
                -0.06213235855102539, 
                -0.2621331214904785
            ], 
            "type" : "VEC2"
        }
    ], 
    "asset" : {
        "generator" : "Khronos Blender glTF 2.0 exporter", 
        "version" : "2.0"
    }, 
    "bufferViews" : [
        {
            "buffer" : 0, 
            "byteLength" : 96, 
            "byteOffset" : 0, 
            "target" : 34963
        }, 
        {
            "buffer" : 0, 
            "byteLength" : 720, 
            "byteOffset" : 96, 
            "target" : 34962
        }, 
        {
            "buffer" : 0, 
            "byteLength" : 720, 
            "byteOffset" : 816, 
            "target" : 34962
        }, 
        {
            "buffer" : 0, 
            "byteLength" : 480, 
            "byteOffset" : 1536, 
            "target" : 34962
        }
    ], 
    "buffers" : [
        {
            "byteLength" : 2016, 
            "uri" : "data:application/octet-stream;base64,"
        }
    ], 
    "meshes" : [
        {
            "name" : "bottom_wall_open", 
            "primitives" : [
                {
                    "attributes" : {
                        "NORMAL" : 2, 
                        "POSITION" : 1, 
                        "TEXCOORD_0" : 3
                    }, 
                    "indices" : 0
                }
            ]
        }
    ], 
    "nodes" : [
        {
            "mesh" : 0, 
            "name" : "Cube.005", 
            "translation" : [
                -10.5, 
                0.0, 
                -5.5
            ]
        }
    ], 
    "scene" : 0, 
    "scenes" : [
        {
            "name" : "Scene", 
            "nodes" : [
                0
            ]
        }
    ]
}
