{
    "accessors" : [
        {
            "bufferView" : 0, 
            "componentType" : 5121, 
            "count" : 84, 
            "max" : [
                59
            ], 
            "min" : [
                0
            ], 
            "type" : "SCALAR"
        }, 
        {
            "bufferView" : 1, 
            "componentType" : 5126, 
            "count" : 60, 
            "max" : [
                0.634164035320282, 
                1.223606824874878, 
                0.6000001430511475
            ], 
            "min" : [
                -0.634164035320282, 
                -0.08944272249937057, 
                -0.6000000238418579
            ], 
            "type" : "VEC3"
        }, 
        {
            "bufferView" : 2, 
            "componentType" : 5126, 
            "count" : 60, 
            "max" : [
                0.8944272398948669, 
                0.4472135901451111, 
                1.0
            ], 
            "min" : [
                -0.8944272398948669, 
                -0.8944271206855774, 
                -1.0
            ], 
            "type" : "VEC3"
        }, 
        {
            "bufferView" : 3, 
            "componentType" : 5126, 
            "count" : 60, 
            "max" : [
                3.375601053237915, 
                0.2345137596130371
            ], 
            "min" : [
                -0.7442476749420166, 
                -2.4014573097229004
            ], 
            "type" : "VEC2"
        }, 
        {
            "bufferView" : 4, 
            "componentType" : 5121, 
            "count" : 12, 
            "max" : [
                9
            ], 
            "min" : [
                0
            ], 
            "type" : "SCALAR"
        }, 
        {
            "bufferView" : 5, 
            "componentType" : 5126, 
            "count" : 10, 
            "max" : [
                0.4999999701976776, 
                1.0, 
                0.5000001192092896
            ], 
            "min" : [
                -0.4999999701976776, 
                0.0, 
                -0.5
            ], 
            "type" : "VEC3"
        }, 
        {
            "bufferView" : 6, 
            "componentType" : 5126, 
            "count" : 10, 
            "max" : [
                -0.0, 
                8.940696716308594e-08, 
                1.0
            ], 
            "min" : [
                -0.0, 
                -1.0, 
                -1.0
            ], 
            "type" : "VEC3"
        }, 
        {
            "bufferView" : 7, 
            "componentType" : 5126, 
            "count" : 10, 
            "max" : [
                1.0, 
                1.0
            ], 
            "min" : [
                0.0, 
                -2.0
            ], 
            "type" : "VEC2"
        }
    ], 
    "asset" : {
        "generator" : "Khronos Blender glTF 2.0 exporter", 
        "version" : "2.0"
    }, 
    "bufferViews" : [
        {
            "buffer" : 0, 
            "byteLength" : 84, 
            "byteOffset" : 0, 
            "target" : 34963
        }, 
        {
            "buffer" : 0, 
            "byteLength" : 720, 
            "byteOffset" : 84, 
            "target" : 34962
        }, 
        {
            "buffer" : 0, 
            "byteLength" : 720, 
            "byteOffset" : 804, 
            "target" : 34962
        }, 
        {
            "buffer" : 0, 
            "byteLength" : 480, 
            "byteOffset" : 1524, 
            "target" : 34962
        }, 
        {
            "buffer" : 0, 
            "byteLength" : 12, 
            "byteOffset" : 2004, 
            "target" : 34963
        }, 
        {
            "buffer" : 0, 
            "byteLength" : 120, 
            "byteOffset" : 2016, 
            "target" : 34962
        }, 
        {
            "buffer" : 0, 
            "byteLength" : 120, 
            "byteOffset" : 2136, 
            "target" : 34962
        }, 
        {
            "buffer" : 0, 
            "byteLength" : 80, 
            "byteOffset" : 2256, 
            "target" : 34962
        }
    ], 
    "buffers" : [
        {
            "byteLength" : 2336, 
            "uri" : "data:application/octet-stream;base64,"
        }
    ], 
    "meshes" : [
        {
            "name" : "roof", 
            "primitives" : [
                {
                    "attributes" : {
                        "NORMAL" : 2, 
                        "POSITION" : 1, 
                        "TEXCOORD_0" : 3
                    }, 
                    "indices" : 0
                }, 
                {
                    "attributes" : {
                        "NORMAL" : 6, 
                        "POSITION" : 5, 
                        "TEXCOORD_0" : 7
                    }, 
                    "indices" : 4
                }
            ]
        }
    ], 
    "nodes" : [
        {
            "mesh" : 0, 
            "name" : "Plane.039", 
            "translation" : [
                -12.5, 
                1.0, 
                -5.5
            ]
        }
    ], 
    "scene" : 0, 
    "scenes" : [
        {
            "name" : "Scene", 
            "nodes" : [
                0
            ]
        }
    ]
}
