{
    "accessors" : [
        {
            "bufferView" : 0, 
            "componentType" : 5121, 
            "count" : 240, 
            "max" : [
                155
            ], 
            "min" : [
                0
            ], 
            "type" : "SCALAR"
        }, 
        {
            "bufferView" : 1, 
            "componentType" : 5126, 
            "count" : 156, 
            "max" : [
                0.6000000238418579, 
                0.699999988079071, 
                -0.30000001192092896
            ], 
            "min" : [
                -0.6000000238418579, 
                0.0, 
                -0.5
            ], 
            "type" : "VEC3"
        }, 
        {
            "bufferView" : 2, 
            "componentType" : 5126, 
            "count" : 156, 
            "max" : [
                1.0, 
                1.0, 
                1.0
            ], 
            "min" : [
                -1.0, 
                -1.0, 
                -1.0
            ], 
            "type" : "VEC3"
        }, 
        {
            "bufferView" : 3, 
            "componentType" : 5126, 
            "count" : 156, 
            "max" : [
                1.7242646217346191, 
                0.15857887268066406
            ], 
            "min" : [
                -0.8414211869239807, 
                -0.7242646217346191
            ], 
            "type" : "VEC2"
        }
    ], 
    "asset" : {
        "generator" : "Khronos Blender glTF 2.0 exporter", 
        "version" : "2.0"
    }, 
    "bufferViews" : [
        {
            "buffer" : 0, 
            "byteLength" : 240, 
            "byteOffset" : 0, 
            "target" : 34963
        }, 
        {
            "buffer" : 0, 
            "byteLength" : 1872, 
            "byteOffset" : 240, 
            "target" : 34962
        }, 
        {
            "buffer" : 0, 
            "byteLength" : 1872, 
            "byteOffset" : 2112, 
            "target" : 34962
        }, 
        {
            "buffer" : 0, 
            "byteLength" : 1248, 
            "byteOffset" : 3984, 
            "target" : 34962
        }
    ], 
    "buffers" : [
        {
            "byteLength" : 5232, 
            "uri" : "data:application/octet-stream;base64,"
        }
    ], 
    "meshes" : [
        {
            "name" : "top_wall", 
            "primitives" : [
                {
                    "attributes" : {
                        "NORMAL" : 2, 
                        "POSITION" : 1, 
                        "TEXCOORD_0" : 3
                    }, 
                    "indices" : 0
                }
            ]
        }
    ], 
    "nodes" : [
        {
            "mesh" : 0, 
            "name" : "Plane.033", 
            "translation" : [
                -9.5, 
                1.0, 
                -5.5
            ]
        }
    ], 
    "scene" : 0, 
    "scenes" : [
        {
            "name" : "Scene", 
            "nodes" : [
                0
            ]
        }
    ]
}
