{
    "accessors" : [
        {
            "bufferView" : 0, 
            "componentType" : 5123, 
            "count" : 504, 
            "max" : [
                335
            ], 
            "min" : [
                0
            ], 
            "type" : "SCALAR"
        }, 
        {
            "bufferView" : 1, 
            "componentType" : 5126, 
            "count" : 336, 
            "max" : [
                0.30000001192092896, 
                0.9000017642974854, 
                -0.25
            ], 
            "min" : [
                -0.30000168085098267, 
                0.0, 
                -0.5500001907348633
            ], 
            "type" : "VEC3"
        }, 
        {
            "bufferView" : 2, 
            "componentType" : 5126, 
            "count" : 336, 
            "max" : [
                1.0, 
                0.9876883625984192, 
                1.0
            ], 
            "min" : [
                -1.0, 
                -0.9876884818077087, 
                -1.0
            ], 
            "type" : "VEC3"
        }, 
        {
            "bufferView" : 3, 
            "componentType" : 5126, 
            "count" : 336, 
            "max" : [
                2.3136346340179443, 
                0.17613768577575684
            ], 
            "min" : [
                -0.5740311145782471, 
                -1.6548233032226562
            ], 
            "type" : "VEC2"
        }, 
        {
            "bufferView" : 4, 
            "componentType" : 5121, 
            "count" : 240, 
            "max" : [
                185
            ], 
            "min" : [
                0
            ], 
            "type" : "SCALAR"
        }, 
        {
            "bufferView" : 5, 
            "componentType" : 5126, 
            "count" : 186, 
            "max" : [
                0.6000000238418579, 
                1.0, 
                -0.25
            ], 
            "min" : [
                -0.6000000238418579, 
                0.0, 
                -0.550000011920929
            ], 
            "type" : "VEC3"
        }, 
        {
            "bufferView" : 6, 
            "componentType" : 5126, 
            "count" : 186, 
            "max" : [
                0.7071067094802856, 
                1.0, 
                1.0
            ], 
            "min" : [
                -0.7071067094802856, 
                -1.0, 
                -1.0
            ], 
            "type" : "VEC3"
        }, 
        {
            "bufferView" : 7, 
            "componentType" : 5126, 
            "count" : 186, 
            "max" : [
                2.654823064804077, 
                0.42596888542175293
            ], 
            "min" : [
                -0.5740311145782471, 
                -1.2412903308868408
            ], 
            "type" : "VEC2"
        }
    ], 
    "asset" : {
        "generator" : "Khronos Blender glTF 2.0 exporter", 
        "version" : "2.0"
    }, 
    "bufferViews" : [
        {
            "buffer" : 0, 
            "byteLength" : 1008, 
            "byteOffset" : 0, 
            "target" : 34963
        }, 
        {
            "buffer" : 0, 
            "byteLength" : 4032, 
            "byteOffset" : 1008, 
            "target" : 34962
        }, 
        {
            "buffer" : 0, 
            "byteLength" : 4032, 
            "byteOffset" : 5040, 
            "target" : 34962
        }, 
        {
            "buffer" : 0, 
            "byteLength" : 2688, 
            "byteOffset" : 9072, 
            "target" : 34962
        }, 
        {
            "buffer" : 0, 
            "byteLength" : 240, 
            "byteOffset" : 11760, 
            "target" : 34963
        }, 
        {
            "buffer" : 0, 
            "byteLength" : 2232, 
            "byteOffset" : 12000, 
            "target" : 34962
        }, 
        {
            "buffer" : 0, 
            "byteLength" : 2232, 
            "byteOffset" : 14232, 
            "target" : 34962
        }, 
        {
            "buffer" : 0, 
            "byteLength" : 1488, 
            "byteOffset" : 16464, 
            "target" : 34962
        }
    ], 
    "buffers" : [
        {
            "byteLength" : 17952, 
            "uri" : "data:application/octet-stream;base64,"
        }
    ], 
    "meshes" : [
        {
            "name" : "wall_door", 
            "primitives" : [
                {
                    "attributes" : {
                        "NORMAL" : 2, 
                        "POSITION" : 1, 
                        "TEXCOORD_0" : 3
                    }, 
                    "indices" : 0
                }, 
                {
                    "attributes" : {
                        "NORMAL" : 6, 
                        "POSITION" : 5, 
                        "TEXCOORD_0" : 7
                    }, 
                    "indices" : 4
                }
            ]
        }
    ], 
    "nodes" : [
        {
            "mesh" : 0, 
            "name" : "Plane.034", 
            "translation" : [
                -8.5, 
                0.0, 
                -5.5
            ]
        }
    ], 
    "scene" : 0, 
    "scenes" : [
        {
            "name" : "Scene", 
            "nodes" : [
                0
            ]
        }
    ]
}
